# xmcd
#
# Track frame offsets: 
#        150
#        10405
#        17462
#        26667
#        39840
#        51652
#        63765
#        77470
#        89682
#        102240
#        109132
#        115992
#        127337
#        137530
#        147915
#        161317
#        170412
#        182825
#        193600
#        204022
#
# Disc length: 2903 seconds
#
# Revision: 4
# Processed by: cddbd v1.5.2PL0 Copyright (c) Steve Scherf et al.
# Submitted via: ExactAudioCopy v1.0b3
#
DISCID=0a0b5514
DTITLE=Faron Young - 20 Best Hits
DYEAR=1987
DGENRE=Country
TTITLE0=Hello Walls
TTITLE1=Going Steady
TTITLE2=I Can't Help It
TTITLE3=There Goes My Everything
TTITLE4=Tomorrow Never Comes
TTITLE5=When Two Worlds Collide
TTITLE6=The Minute You're Gone
TTITLE7=High Noon
TTITLE8=Are You Sincere
TTITLE9=I'll Trade All My Tomorrows
TTITLE10=Alone With You
TTITLE11=Walk Tall
TTITLE12=A Moment Isn't Very Long
TTITLE13=Satisfied Mind
TTITLE14=Almost Persuaded
TTITLE15=The Race Is On
TTITLE16=I Let It Slip Away
TTITLE17=Memphis
TTITLE18=I Could Never Be Ashamed of You
TTITLE19=Welcome To My World
EXTD=
EXTT0=
EXTT1=
EXTT2=
EXTT3=
EXTT4=
EXTT5=
EXTT6=
EXTT7=
EXTT8=
EXTT9=
EXTT10=
EXTT11=
EXTT12=
EXTT13=
EXTT14=
EXTT15=
EXTT16=
EXTT17=
EXTT18=
EXTT19=
PLAYORDER=
